HIERARCHY
ROOT Hips
{
	OFFSET 0.000000 0.000000 0.000000 
	CHANNELS 6 Xposition Yposition Zposition Yrotation Zrotation Xrotation 
	JOINT Lumbar
	{
		OFFSET 0.000000 0.000000 0.000000 
		CHANNELS 3 Zrotation Xrotation Yrotation
		JOINT Neck
		{
			OFFSET 0.000000 0.445665 0.000000 
			CHANNELS 3 Zrotation Xrotation Yrotation
			End Site
			{
				OFFSET 0.000000 0.227535 0.000000 
			}
		}
		JOINT RightShoulder
		{
			OFFSET 0.019635 0.377685 0.194865 
			CHANNELS 3 Zrotation Xrotation Yrotation
			JOINT RightElbow
			{
				OFFSET 0.000000 -0.243375 0.000000 
				CHANNELS 2 Zrotation Yrotation
				JOINT RightWrist
				{
					OFFSET 0.000000 -0.264825 0.000000 
					CHANNELS 2 Zrotation Xrotation
					End Site
					{
						OFFSET 0.006600 -0.176220 0.000990 
					}
				}
			}
		}
		JOINT LeftShoulder
		{
			OFFSET 0.019635 0.377685 -0.194865 
			CHANNELS 3 Zrotation Xrotation Yrotation
			JOINT LeftElbow
			{
				OFFSET 0.000000 -0.243375 0.000000 
				CHANNELS 2 Zrotation Yrotation
				JOINT LeftWrist
				{
					OFFSET 0.000000 -0.264825 0.000000 
					CHANNELS 2 Zrotation Xrotation
					End Site
					{
						OFFSET 0.006600 -0.176220 -0.000990 
					}
				}
			}
		}
	}
	JOINT RightHip
	{
		OFFSET 0.052140 -0.069960 0.075570 
		CHANNELS 3 Zrotation Xrotation Yrotation
		JOINT RightKnee
		{
			OFFSET 0.000000 -0.402270 0.000000 
			CHANNELS 1 Zrotation
			JOINT RightAnkle
			{
				OFFSET 0.000000 -0.404085 0.000000 
				CHANNELS 3 Zrotation Xrotation Yrotation
				End Site
				{
					OFFSET 0.204105 -0.089430 0.008415 
				}
			}
		}
	}
	JOINT LeftHip
	{
		OFFSET 0.052140 -0.069960 -0.075570 
		CHANNELS 3 Zrotation Xrotation Yrotation
		JOINT LeftKnee
		{
			OFFSET 0.000000 -0.402270 0.000000 
			CHANNELS 1 Zrotation
			JOINT LeftAnkle
			{
				OFFSET 0.000000 -0.404085 0.000000 
				CHANNELS 3 Zrotation Xrotation Yrotation
				End Site
				{
					OFFSET 0.204105 -0.089430 -0.008415 
				}
			}
		}
	}
}
MOTION
Frames: 20
Frame Time: 0.02
0.22146 0.7264 0.01831 181.87912 0 -4.8056 -2.81724 5.8127 -0.02061 -30.88135 -0.48828 2.18147 54.60298 -40.7494 48.52337 91.52431 66.24459 -17.60821 0.33922 45.57377 21.37255 -40.0232 87.28406 -145.54999 36.59442 -9.52984 57.30392 -1.69125 -9.68864 -65.69873 7.24409 -1.59486 -0.22118 58.71635 6.86131 3.86358 -60.79454 6.16395 4.55051 7.08138
0.22153 0.72642 0.01829 181.85681 0 -4.79929 -2.89245 5.81629 -0.00517 -30.79771 -0.47096 2.2099 54.73733 -40.72409 48.7585 91.36047 64.92819 -15.6015 1.70375 45.56556 21.20467 -40.15721 86.92841 -144.43264 35.97478 -9.19601 57.30704 -1.67152 -9.66775 -65.68495 7.2363 -1.59849 -0.22532 58.71379 6.84389 3.82256 -60.78797 6.14879 4.56573 7.12289
0.22163 0.72646 0.0183 181.83578 0 -4.78533 -2.97329 5.81204 0.00136 -30.67807 -0.44761 2.23941 54.90615 -40.7353 49.03383 91.2695 63.09445 -12.97026 3.50486 45.49521 21.00815 -40.25291 86.51433 -142.94275 34.97977 -8.77109 57.31029 -1.66187 -9.64596 -65.67026 7.22924 -1.5993 -0.22333 58.70574 6.83072 3.80625 -60.77233 6.13138 4.57889 7.15184
0.22171 0.72649 0.0183 181.81405 0 -4.77529 -3.05018 5.81104 0.00926 -30.57223 -0.42377 2.26949 55.06819 -40.7421 49.28893 91.18182 61.82437 -10.60155 5.02736 45.45007 20.82092 -40.36572 86.12127 -141.64549 34.17041 -8.39627 57.31301 -1.64772 -9.62544 -65.65592 7.22199 -1.60113 -0.22366 58.70007 6.81691 3.78007 -60.76122 6.11575 4.59259 7.1853
0.22181 0.72652 0.0183 181.79238 0 -4.76419 -3.13303 5.8123 0.02879 -30.47818 -0.41378 2.29531 55.19023 -40.69617 49.55499 90.93905 59.22751 -8.31449 6.88557 45.42009 20.64903 -40.48279 85.75062 -140.25192 33.3079 -7.98435 57.3177 -1.63234 -9.6016 -65.64142 7.21376 -1.60415 -0.22611 58.69538 6.79835 3.7475 -60.74882 6.097 4.60799 7.22395
0.22187 0.72656 0.0183 181.77108 0 -4.75322 -3.2046 5.80655 0.02173 -30.35032 -0.37304 2.33025 55.40832 -40.77019 49.80663 91.03852 59.20063 -5.72076 8.15054 45.34267 20.43776 -40.58057 85.31881 -138.97006 32.46328 -7.62831 57.31828 -1.62222 -9.58439 -65.62715 7.20788 -1.60398 -0.22264 58.68713 6.79041 3.73427 -60.73676 6.0842 4.61934 7.24878
0.2218 0.72665 0.01834 181.75032 0 -4.74378 -3.24594 5.78432 -0.05504 -30.14198 -0.25378 2.38908 55.83917 -41.15459 50.00993 92.04877 66.99016 -2.3299 7.65579 45.15179 20.13428 -40.63665 84.74459 -138.08253 31.75569 -7.44775 57.30821 -1.62455 -9.58509 -65.61456 7.20844 -1.59579 -0.20433 58.67065 6.81069 3.76933 -60.72821 6.08809 4.61998 7.23824
0.22168 0.72676 0.01838 181.72999 0 -4.73472 -3.27533 5.75499 -0.15851 -29.89997 -0.10296 2.45715 56.3736 -41.66043 50.19668 93.40398 77.2758 1.32709 6.55228 44.91454 19.79058 -40.67382 84.10891 -137.32084 31.07843 -7.3268 57.29389 -1.63188 -9.59254 -65.60217 7.21136 -1.58447 -0.18028 58.65066 6.84138 3.82291 -60.72017 6.09806 4.61662 7.21429
0.22158 0.72686 0.01842 181.7096 0 -4.72584 -3.30874 5.72814 -0.25089 -29.67072 0.03667 2.52161 56.88907 -42.11883 50.38982 94.612 86.02446 4.79731 5.73693 44.6967 19.45922 -40.71786 83.49364 -136.50469 30.3883 -7.17937 57.28105 -1.63677 -9.59729 -65.58922 7.21317 -1.57452 -0.15884 58.63205 6.86729 3.86754 -60.71162 6.10546 4.61507 7.19663
0.22149 0.72695 0.01847 181.68861 0 -4.71528 -3.34834 5.70417 -0.33945 -29.45118 0.16346 2.58372 57.28657 -42.54688 50.58935 95.78209 96.44078 8.57507 4.88673 44.48385 19.15183 -40.768 82.90788 -135.66426 29.68086 -7.02626 57.27008 -1.64265 -9.60059 -65.57816 7.21521 -1.56467 -0.13715 58.6142 6.89373 3.91536 -60.704 6.11206 4.61343 7.17761
0.22138 0.72707 0.01851 181.66905 0 -4.70836 -3.37209 5.67263 -0.44182 -29.2036 0.32409 2.6528 57.95457 -43.06515 50.77088 97.11217 104.00082 11.75745 3.9607 44.25031 18.78541 -40.8013 82.24706 -134.90888 29.02223 -6.9002 57.25424 -1.64759 -9.6084 -65.56327 7.21728 -1.55394 -0.11476 58.59397 6.92127 3.96049 -60.6946 6.1217 4.61111 7.15851
0.22121 0.72724 0.01854 181.65244 0 -4.71185 -3.35535 5.62194 -0.57878 -28.88911 0.5731 2.73959 59.33815 -43.8141 50.90838 98.79917 102.9172 13.30745 2.95534 43.97129 18.26583 -40.79387 81.39308 -134.36223 28.48638 -6.83615 57.22582 -1.64836 -9.62792 -65.53748 7.21916 -1.54115 -0.09117 58.56834 6.95097 3.99474 -60.68094 6.13902 4.60758 7.14156
0.22102 0.72744 0.01857 181.63743 0 -4.71894 -3.323 5.56395 -0.728 -28.54707 0.85452 2.83282 60.99084 -44.64714 51.02783 100.63487 98.90699 14.2287 1.89535 43.67302 17.68861 -40.77013 80.46661 -133.89828 28.00139 -6.79749 57.19269 -1.64805 -9.65157 -65.50788 7.22096 -1.52768 -0.06724 58.54042 6.98108 4.02533 -60.66536 6.15906 4.60357 7.1252
0.22085 0.72762 0.0186 181.62224 0 -4.7241 -3.29753 5.5093 -0.86975 -28.21663 1.11939 2.9228 62.52473 -45.4344 51.15427 102.40254 96.32937 15.38792 0.87139 43.38401 17.13765 -40.75329 79.57371 -133.39474 27.49788 -6.74627 57.16184 -1.64845 -9.67274 -65.48018 7.2226 -1.51481 -0.04389 58.51335 7.00986 4.05676 -60.65016 6.17738 4.60002 7.10926
0.22066 0.72781 0.01863 181.60468 0 -4.73048 -3.27247 5.45416 -1.02088 -27.88987 1.39322 3.01497 64.04952 -46.25879 51.28526 104.18461 93.38782 16.77034 -0.21816 43.09233 16.58406 -40.73791 78.67422 -132.90203 26.9755 -6.7009 57.13022 -1.64812 -9.69672 -65.45175 7.22509 -1.50057 -0.01847 58.48687 7.04381 4.09233 -60.63702 6.19799 4.59535 7.09
0.22049 0.728 0.01866 181.59252 0 -4.73522 -3.24312 5.39858 -1.15448 -27.5481 1.65547 3.10333 65.65327 -47.02307 51.40274 105.967 90.49892 17.52018 -1.17953 42.80083 16.02397 -40.71588 77.77425 -132.40706 26.50453 -6.64922 57.09918 -1.64895 -9.71573 -65.42397 7.22582 -1.48911 0.00254 58.45877 7.06697 4.11814 -60.6192 6.21435 4.59293 7.07789
0.22033 0.72822 0.01869 181.59404 0 -4.73393 -3.20479 5.34195 -1.2415 -27.18201 1.87941 3.18542 67.43059 -47.61011 51.48735 107.71561 88.26707 16.80195 -1.74018 42.52644 15.45039 -40.67968 76.87277 -131.86632 26.16075 -6.56845 57.07045 -1.65342 -9.71998 -65.39859 7.22128 -1.4852 0.01214 58.42576 7.06008 4.11797 -60.58827 6.21857 4.59706 7.08626
0.22018 0.72844 0.0187 181.60109 0 -4.73095 -3.16293 5.28546 -1.30952 -26.7996 2.09005 3.26237 69.27347 -48.13145 51.55945 109.45669 86.21255 15.44488 -2.17142 42.25049 14.87446 -40.63743 75.97727 -131.32352 25.86752 -6.48115 57.04254 -1.65902 -9.71905 -65.37406 7.21503 -1.4842 0.0171 58.39137 7.04231 4.10803 -60.55279 6.21836 4.60345 7.10171
0.22003 0.72865 0.01873 181.60619 0 -4.72914 -3.12337 5.23002 -1.38278 -26.41852 2.30569 3.33773 71.07193 -48.67608 51.63682 111.19915 84.20124 14.296 -2.68305 41.96824 14.30587 -40.59796 75.09072 -130.79361 25.55227 -6.40015 57.01454 -1.66397 -9.72051 -65.34938 7.20985 -1.4821 0.02359 58.35831 7.02953 4.1024 -60.51984 6.21997 4.60869 7.11343
0.21986 0.72888 0.01874 181.60902 0 -4.72576 -3.08032 5.16967 -1.47037 -26.0638 2.52725 3.42965 72.94203 -49.25126 51.71365 112.95829 81.5762 13.46885 -3.1131 41.71668 13.70794 -40.55783 74.15114 -130.21588 25.23383 -6.30613 56.98521 -1.66947 -9.722 -65.3236 7.20346 -1.47905 0.03252 58.32229 7.01651 4.09706 -60.48496 6.22246 4.61446 7.12736
